Coordinates
version=1
nRows=9
nColumns=24
inDegrees=yes

Units are S.I. units (second, meters, Newtons, ...)
Angles are in degrees.

endheader
time	pelvis_tilt	pelvis_list	pelvis_rotation	pelvis_tx	pelvis_ty	pelvis_tz	hip_flexion_r	hip_adduction_r	hip_rotation_r	knee_angle_r	ankle_angle_r	subtalar_angle_r	mtp_angle_r	hip_flexion_l	hip_adduction_l	hip_rotation_l	knee_angle_l	ankle_angle_l	subtalar_angle_l	mtp_angle_l	lumbar_extension	lumbar_bending	lumbar_rotation
      0.52900000	     -5.70891529	      0.13601883	     -0.67913620	     -0.76708076	      1.04994688	      0.28663206	     28.21623865	      0.31640131	     -6.03459901	     -7.30575246	      7.21091966	      2.51572088	      8.78008580	     -7.15458719	      1.61863642	      1.98850762	    -10.07353231	     20.78202338	      6.89568151	     -0.39953468	     -3.72600311	      0.17799093	     -4.48659926
      0.53316667	     -5.63678808	      0.10375114	     -0.58624685	     -0.76085804	      1.04912779	      0.28685824	     28.11697928	      0.38712681	     -5.83432019	     -7.42274304	      7.15416178	      2.29574174	      8.77885225	     -7.28682347	      1.55655558	      1.94845937	    -10.73007133	     20.96646156	      7.10561182	     -0.36950801	     -3.77055936	      0.25849977	     -4.52623613
      0.53733333	     -5.55382135	      0.06369306	     -0.49770108	     -0.75460482	      1.04836791	      0.28708442	     28.00865771	      0.46649722	     -5.62079376	     -7.62202688	      7.06689542	      2.03150804	      8.78207649	     -7.40098497	      1.48045385	      1.84593235	    -11.45019011	     21.14154579	      7.38424411	     -0.30237342	     -3.82560172	      0.35450073	     -4.54923691
      0.54150000	     -5.45897576	      0.02293227	     -0.41474697	     -0.74834246	      1.04766417	      0.28733509	     27.89345612	      0.54999842	     -5.40177222	     -7.90054834	      6.94157491	      1.71495769	      8.78835528	     -7.48955023	      1.39588839	      1.68377160	    -12.24876927	     21.29325867	      7.71172721	     -0.19178171	     -3.88422344	      0.45090423	     -4.57466114
      0.54566667	     -5.35354102	     -0.03016179	     -0.32864826	     -0.74205332	      1.04701634	      0.28757307	     27.76404128	      0.64354638	     -5.16863089	     -8.23989099	      6.77629607	      1.35490512	      8.79838330	     -7.56624915	      1.29161443	      1.50864858	    -13.10082194	     21.42386282	      8.08967639	     -0.03713699	     -3.95901949	      0.57074244	     -4.59135316
      0.54983333	     -5.27297209	     -0.07926660	     -0.24079281	     -0.73573929	      1.04636390	      0.28781935	     27.66334260	      0.73292703	     -4.92243463	     -8.64312847	      6.57689168	      0.95944908	      8.81169225	     -7.57844625	      1.18343098	      1.30914460	    -14.02823407	     21.54223153	      8.52566599	      0.15751582	     -4.00250355	      0.68992428	     -4.60146948
      0.55400000	     -5.15251374	     -0.13736926	     -0.15161902	     -0.72942938	      1.04582174	      0.28807226	     27.52265720	      0.83007801	     -4.68261147	     -9.10302059	      6.33499903	      0.52402888	      8.82550219	     -7.59758057	      1.05489751	      1.07278148	    -15.02483062	     21.64072719	      9.00553655	      0.38983291	     -4.09813283	      0.81902072	     -4.60659158
      0.55816667	     -5.07160224	     -0.19865391	     -0.07862692	     -0.72305926	      1.04524727	      0.28837258	     27.42641900	      0.93900206	     -4.43052302	     -9.61402738	      6.05429316	      0.05441075	      8.84210852	     -7.53904150	      0.90817479	      0.74157003	    -16.09819039	     21.66995331	      9.54851451	      0.69115652	     -4.11395289	      0.95156484	     -4.60446257
      0.56233333	     -4.93591859	     -0.26831317	     -0.00118346	     -0.71671406	      1.04480674	      0.28866569	     27.26923241	      1.05298940	     -4.18757137	    -10.15669962	      5.74794224	     -0.42062096	      8.85582045	     -7.50695437	      0.74272624	      0.40671334	    -17.23223581	     21.68169197	     10.13359831	      1.02871193	     -4.21539259	      1.09771584	     -4.59421631
